<svg width="30" height="30" viewBox="0 0 30 30" fill="none" xmlns="http://www.w3.org/2000/svg">
<path d="M13.1385 8.36378C13.4557 8.5319 13.9119 8.61523 14.5083 8.61523C15.1048 8.61523 15.5902 8.5319 15.9074 8.36378C16.2247 8.19566 16.384 7.84186 16.384 7.30094V6.29659C16.384 5.75567 16.2247 5.40188 15.9074 5.23375C15.5902 5.06563 15.1238 4.9823 14.5083 4.9823C13.8929 4.9823 13.4543 5.06563 13.1385 5.23375C12.8213 5.40188 12.6634 5.75567 12.6634 6.29659V7.30094C12.6634 7.84186 12.8213 8.19566 13.1385 8.36378Z" fill="url(#paint0_linear_15_2)"/>
<path d="M14.523 0C6.50273 0 0 6.50273 0 14.523C0 20.8196 4.00719 26.1776 9.61083 28.1922V25.0358C5.65773 23.1865 2.91951 19.1749 2.91951 14.523C2.91951 8.1138 8.11526 2.91951 14.523 2.91951C20.9307 2.91951 26.1264 8.11526 26.1264 14.523C26.1264 20.2977 21.9073 25.0855 16.3826 25.9773V12.1298C16.3826 11.5888 16.2232 11.2351 15.906 11.0669C15.5887 10.8988 15.1224 10.8155 14.5069 10.8155C13.8914 10.8155 13.4528 10.8988 13.137 11.0669C12.8198 11.2351 12.6619 11.5888 12.6619 12.1298V27.7199V28.9231C13.2715 29.0006 13.8914 29.0459 14.5215 29.0459C22.5417 29.0459 29.0445 22.5432 29.0445 14.523C29.0445 6.50273 22.5432 0 14.523 0Z" fill="url(#paint1_linear_15_2)"/>
<defs>
<linearGradient id="paint0_linear_15_2" x1="14.5237" y1="4.9823" x2="14.5237" y2="8.61523" gradientUnits="userSpaceOnUse">
<stop stop-color="#14B8A6"/>
<stop offset="0.619792" stop-color="#009282"/>
<stop offset="1" stop-color="#14B8A6"/>
</linearGradient>
<linearGradient id="paint1_linear_15_2" x1="14.5222" y1="0" x2="14.5222" y2="29.0459" gradientUnits="userSpaceOnUse">
<stop stop-color="#14B8A6"/>
<stop offset="0.619792" stop-color="#009282"/>
<stop offset="1" stop-color="#14B8A6"/>
</linearGradient>
</defs>
</svg>
