<svg width="150" height="30" viewBox="0 0 150 30" fill="none" xmlns="http://www.w3.org/2000/svg">
<path d="M13.1385 8.36378C13.4557 8.5319 13.9119 8.61523 14.5083 8.61523C15.1048 8.61523 15.5902 8.5319 15.9074 8.36378C16.2247 8.19566 16.384 7.84186 16.384 7.30094V6.29659C16.384 5.75567 16.2247 5.40188 15.9074 5.23375C15.5902 5.06563 15.1238 4.9823 14.5083 4.9823C13.8929 4.9823 13.4543 5.06563 13.1385 5.23375C12.8213 5.40188 12.6634 5.75567 12.6634 6.29659V7.30094C12.6634 7.84186 12.8213 8.19566 13.1385 8.36378Z" fill="url(#paint0_linear_1_41)"/>
<path d="M14.523 0C6.50273 0 0 6.50273 0 14.523C0 20.8196 4.00719 26.1776 9.61083 28.1922V25.0358C5.65773 23.1865 2.91951 19.1749 2.91951 14.523C2.91951 8.1138 8.11526 2.91951 14.523 2.91951C20.9307 2.91951 26.1264 8.11526 26.1264 14.523C26.1264 20.2977 21.9073 25.0855 16.3826 25.9773V12.1298C16.3826 11.5888 16.2232 11.2351 15.906 11.0669C15.5887 10.8988 15.1224 10.8155 14.5069 10.8155C13.8914 10.8155 13.4528 10.8988 13.137 11.0669C12.8198 11.2351 12.6619 11.5888 12.6619 12.1298V27.7199V28.9231C13.2715 29.0006 13.8914 29.0459 14.5215 29.0459C22.5417 29.0459 29.0445 22.5432 29.0445 14.523C29.0445 6.50273 22.5432 0 14.523 0Z" fill="url(#paint1_linear_1_41)"/>
<path d="M34.9303 26.0285C34.9303 26.5372 34.7899 26.8706 34.5092 27.0285C34.2285 27.1863 33.8075 27.2653 33.2476 27.2653C32.6876 27.2653 32.2695 27.1863 31.9991 27.0285C31.7271 26.8706 31.5912 26.5372 31.5912 26.0285V12.5654C31.5912 9.5158 34.0721 7.98953 39.0325 7.98953H45.3437C50.3041 7.98953 52.785 9.51434 52.785 12.5654V18.2714C52.785 21.321 50.3041 22.8473 45.3437 22.8473H34.9303V26.0285ZM45.2384 20.1909C46.7106 20.1909 47.7808 20.0067 48.4474 19.6383C49.1141 19.2699 49.4459 18.8138 49.4459 18.2714V12.5654C49.4459 12.0391 49.1126 11.5888 48.4474 11.2117C47.7808 10.8345 46.7121 10.6459 45.2384 10.6459H39.1377C37.6656 10.6459 36.5954 10.8345 35.9302 11.2117C35.2636 11.5888 34.9303 12.0406 34.9303 12.5654V20.1909H45.2384Z" fill="url(#paint2_linear_1_41)"/>
<path d="M63.7774 7.98807C64.1809 7.98807 64.4382 8.1021 64.5537 8.33016C64.6677 8.55823 64.7247 8.89155 64.7247 9.32867C64.7247 9.76579 64.6677 10.0962 64.5537 10.3155C64.4396 10.5348 64.1809 10.6444 63.7774 10.6444H61.7263C60.4295 10.6444 59.526 10.8111 59.0173 11.1444C58.5085 11.4777 58.2542 11.9426 58.2542 12.5376V21.7143C58.2542 22.223 58.1138 22.5564 57.8331 22.7142C57.5524 22.8721 57.1314 22.9511 56.5715 22.9511C56.0115 22.9511 55.5934 22.8721 55.323 22.7142C55.051 22.5564 54.9151 22.223 54.9151 21.7143V12.5376C54.9151 11.0128 55.4969 9.87252 56.6636 9.11961C57.8287 8.36671 59.5173 7.98953 61.7263 7.98953H63.7774V7.98807Z" fill="url(#paint3_linear_1_41)"/>
<path d="M69.9029 22.8458C64.9411 22.8458 62.4616 21.321 62.4616 18.2699V16.8767C62.4616 13.8271 64.9425 12.3008 69.9029 12.3008H81.157V12.2745C81.157 11.7657 80.828 11.3666 80.1702 11.0786C79.5123 10.7892 78.4392 10.6444 76.9495 10.6444H74.4774C74.0739 10.6444 73.8107 10.5348 73.6879 10.3155C73.5651 10.0962 73.5037 9.76725 73.5037 9.32867C73.5037 8.89009 73.5651 8.53629 73.6879 8.31554C73.8107 8.09625 74.0739 7.9866 74.4774 7.9866H77.0548C82.0151 7.9866 84.4961 9.51141 84.4961 12.5625V18.2685C84.4961 21.3181 82.0151 22.8444 77.0548 22.8444H69.9015L69.9029 22.8458ZM76.951 20.1895C78.4231 20.1895 79.4933 20.0009 80.1585 19.6237C80.8251 19.2465 81.1584 18.7948 81.1584 18.2699V14.8519H70.0097C68.5375 14.8519 67.4673 15.0361 66.8021 15.4045C66.1355 15.7729 65.8022 16.2291 65.8022 16.7714V18.2699C65.8022 18.7962 66.1355 19.248 66.8021 19.6237C67.4688 20.0009 68.5375 20.1895 70.0097 20.1895H76.9524H76.951Z" fill="url(#paint4_linear_1_41)"/>
<path d="M108.374 12.564C108.374 9.51434 110.855 7.98807 115.815 7.98807H121.548C126.508 7.98807 128.989 9.51288 128.989 12.564V18.2699C128.989 21.3195 126.508 22.8458 121.548 22.8458H115.815C110.853 22.8458 108.374 21.321 108.374 18.2699V12.564ZM125.651 12.564C125.651 12.0201 125.318 11.564 124.651 11.197C123.985 10.8286 122.916 10.6444 121.442 10.6444H115.921C114.448 10.6444 113.378 10.8286 112.713 11.197C112.046 11.5654 111.713 12.0216 111.713 12.564V18.2699C111.713 18.7962 112.046 19.248 112.713 19.6237C113.38 20.0009 114.448 20.1895 115.921 20.1895H121.442C122.915 20.1895 123.985 20.0009 124.651 19.6237C125.318 19.2465 125.651 18.7948 125.651 18.2699V12.564Z" fill="url(#paint5_linear_1_41)"/>
<path d="M130.884 11.9324C130.884 10.7058 131.41 9.74094 132.461 9.03921C133.512 8.33893 135.074 7.98807 137.142 7.98807H140.744C141.148 7.98807 141.411 8.09771 141.534 8.31701C141.657 8.5363 141.718 8.87401 141.718 9.33013C141.718 9.78626 141.657 10.0977 141.534 10.3169C141.411 10.5362 141.148 10.6459 140.744 10.6459H137.116C136.116 10.6459 135.381 10.7643 134.907 11.0011C134.433 11.238 134.196 11.5581 134.196 11.9616V12.6458C134.196 13.0493 134.442 13.3739 134.933 13.6195C135.424 13.8651 136.195 13.9879 137.247 13.9879H143.059C145.513 13.9879 147.284 14.3388 148.37 15.039C149.456 15.7408 150 16.7217 150 17.9834V18.8255C150 19.457 149.86 20.0213 149.579 20.5213C149.298 21.0213 148.86 21.4409 148.265 21.783C147.668 22.1251 146.898 22.3882 145.95 22.5724C145.005 22.7566 143.873 22.8487 142.559 22.8487H131.908C131.505 22.8487 131.242 22.7391 131.119 22.5198C130.996 22.3005 130.935 21.9628 130.935 21.5067C130.935 21.0506 130.996 20.7406 131.119 20.5199C131.242 20.3006 131.505 20.1909 131.908 20.1909H143.057C143.759 20.1909 144.341 20.1602 144.806 20.0988C145.269 20.0374 145.638 19.9497 145.909 19.8357C146.181 19.7216 146.37 19.5857 146.475 19.4278C146.581 19.2699 146.633 19.0857 146.633 18.8752V17.9278C146.633 17.7173 146.581 17.5331 146.475 17.3752C146.37 17.2173 146.186 17.077 145.923 16.9542C145.659 16.8314 145.304 16.7393 144.858 16.6779C144.411 16.6165 143.845 16.5858 143.162 16.5858H137.272C135.151 16.5858 133.556 16.2393 132.486 15.5463C131.417 14.8548 130.882 13.9031 130.882 12.6941V11.9309L130.884 11.9324Z" fill="url(#paint6_linear_1_41)"/>
<path d="M106.468 20.5316C106.354 20.3035 106.095 20.1895 105.691 20.1895H91.1231L105.481 9.7234C105.762 9.53042 105.963 9.36815 106.086 9.23657C106.209 9.105 106.27 8.93395 106.27 8.72343C106.27 8.33747 106.095 8.10064 105.744 8.01292C105.393 7.92521 104.972 7.88135 104.482 7.88135C104.428 7.88135 104.379 7.88281 104.326 7.88427V7.88135H86.6524C86.2489 7.88135 85.9916 7.99099 85.8761 8.21029C85.7621 8.42958 85.7051 8.75851 85.7051 9.1971C85.7051 9.63568 85.7621 9.96901 85.8761 10.1971C85.9902 10.4251 86.2489 10.5392 86.6524 10.5392H99.4781L86.363 20.2684C86.1174 20.4614 85.9463 20.65 85.8498 20.8342C85.7533 21.0184 85.7051 21.2333 85.7051 21.4789C85.7051 21.9526 85.8937 22.2991 86.2709 22.5169C86.648 22.7362 87.3088 22.8458 88.2562 22.8458H105.69C106.093 22.8458 106.351 22.7362 106.466 22.5169C106.58 22.2976 106.637 21.9687 106.637 21.5301C106.637 21.0915 106.58 20.7582 106.466 20.5301L106.468 20.5316Z" fill="url(#paint7_linear_1_41)"/>
<defs>
<linearGradient id="paint0_linear_1_41" x1="14.5237" y1="4.9823" x2="14.5237" y2="8.61523" gradientUnits="userSpaceOnUse">
<stop stop-color="#14B8A6"/>
<stop offset="0.619792" stop-color="#009282"/>
<stop offset="1" stop-color="#14B8A6"/>
</linearGradient>
<linearGradient id="paint1_linear_1_41" x1="14.5222" y1="0" x2="14.5222" y2="29.0459" gradientUnits="userSpaceOnUse">
<stop stop-color="#14B8A6"/>
<stop offset="0.619792" stop-color="#009282"/>
<stop offset="1" stop-color="#14B8A6"/>
</linearGradient>
<linearGradient id="paint2_linear_1_41" x1="42.1881" y1="7.98953" x2="42.1881" y2="27.2653" gradientUnits="userSpaceOnUse">
<stop stop-color="#14B8A6"/>
<stop offset="0.619792" stop-color="#009282"/>
<stop offset="1" stop-color="#14B8A6"/>
</linearGradient>
<linearGradient id="paint3_linear_1_41" x1="59.8199" y1="7.98807" x2="59.8199" y2="22.9511" gradientUnits="userSpaceOnUse">
<stop stop-color="#14B8A6"/>
<stop offset="0.619792" stop-color="#009282"/>
<stop offset="1" stop-color="#14B8A6"/>
</linearGradient>
<linearGradient id="paint4_linear_1_41" x1="73.4788" y1="7.9866" x2="73.4788" y2="22.8458" gradientUnits="userSpaceOnUse">
<stop stop-color="#14B8A6"/>
<stop offset="0.619792" stop-color="#009282"/>
<stop offset="1" stop-color="#14B8A6"/>
</linearGradient>
<linearGradient id="paint5_linear_1_41" x1="118.681" y1="7.98807" x2="118.681" y2="22.8458" gradientUnits="userSpaceOnUse">
<stop stop-color="#14B8A6"/>
<stop offset="0.619792" stop-color="#009282"/>
<stop offset="1" stop-color="#14B8A6"/>
</linearGradient>
<linearGradient id="paint6_linear_1_41" x1="140.441" y1="7.98807" x2="140.441" y2="22.8487" gradientUnits="userSpaceOnUse">
<stop stop-color="#14B8A6"/>
<stop offset="0.619792" stop-color="#009282"/>
<stop offset="1" stop-color="#14B8A6"/>
</linearGradient>
<linearGradient id="paint7_linear_1_41" x1="96.1712" y1="7.88135" x2="96.1712" y2="22.8458" gradientUnits="userSpaceOnUse">
<stop stop-color="#14B8A6"/>
<stop offset="0.619792" stop-color="#009282"/>
<stop offset="1" stop-color="#14B8A6"/>
</linearGradient>
</defs>
</svg>
