<?xml version="1.0" encoding="UTF-8"?><svg id="Layer_2" xmlns="http://www.w3.org/2000/svg" xmlns:xlink="http://www.w3.org/1999/xlink" viewBox="0 0 198.68 198.68"><defs><style>.cls-1{fill:#fff;}.cls-2{fill:url(#GRADIENTE_RPALAW);}</style><linearGradient id="GRADIENTE_RPALAW" x1="99.34" y1="-.89" x2="99.34" y2="197.79" gradientUnits="userSpaceOnUse"><stop offset="0" stop-color="#2170b3"/><stop offset="1" stop-color="#593388"/></linearGradient></defs><g id="Layer_1-2"><path class="cls-1" d="m89.87,57.21c2.17,1.15,5.29,1.72,9.37,1.72s7.4-.57,9.57-1.72c2.17-1.15,3.26-3.57,3.26-7.27v-6.87c0-3.7-1.09-6.12-3.26-7.27-2.17-1.15-5.36-1.72-9.57-1.72s-7.21.57-9.37,1.72c-2.17,1.15-3.25,3.57-3.25,7.27v6.87c0,3.7,1.08,6.12,3.25,7.27Z"/><path class="cls-1" d="m99.34,0C44.48,0,0,44.48,0,99.34c0,43.07,27.41,79.72,65.74,93.5v-21.59c-27.04-12.65-45.77-40.09-45.77-71.91,0-43.84,35.54-79.37,79.37-79.37s79.37,35.54,79.37,79.37c0,39.5-28.86,72.25-66.65,78.35v-94.72c0-3.7-1.09-6.12-3.26-7.27-2.17-1.15-5.36-1.72-9.57-1.72s-7.21.57-9.37,1.72c-2.17,1.15-3.25,3.57-3.25,7.27v106.64h0v8.23c4.17.53,8.41.84,12.72.84,54.86,0,99.34-44.48,99.34-99.34S154.2,0,99.34,0Z"/><path class="cls-2" d="m89.87,57.21c2.17,1.15,5.29,1.72,9.37,1.72s7.4-.57,9.57-1.72c2.17-1.15,3.26-3.57,3.26-7.27v-6.87c0-3.7-1.09-6.12-3.26-7.27-2.17-1.15-5.36-1.72-9.57-1.72s-7.21.57-9.37,1.72c-2.17,1.15-3.25,3.57-3.25,7.27v6.87c0,3.7,1.08,6.12,3.25,7.27Z"/><path class="cls-2" d="m99.34,0C44.48,0,0,44.48,0,99.34c0,43.07,27.41,79.72,65.74,93.5v-21.59c-27.04-12.65-45.77-40.09-45.77-71.91,0-43.84,35.54-79.37,79.37-79.37s79.37,35.54,79.37,79.37c0,39.5-28.86,72.25-66.65,78.35v-94.72c0-3.7-1.09-6.12-3.26-7.27-2.17-1.15-5.36-1.72-9.57-1.72s-7.21.57-9.37,1.72c-2.17,1.15-3.25,3.57-3.25,7.27v106.64h0v8.23c4.17.53,8.41.84,12.72.84,54.86,0,99.34-44.48,99.34-99.34S154.2,0,99.34,0Z"/><path class="cls-2" d="m89.87,57.21c2.17,1.15,5.29,1.72,9.37,1.72s7.4-.57,9.57-1.72c2.17-1.15,3.26-3.57,3.26-7.27v-6.87c0-3.7-1.09-6.12-3.26-7.27-2.17-1.15-5.36-1.72-9.57-1.72s-7.21.57-9.37,1.72c-2.17,1.15-3.25,3.57-3.25,7.27v6.87c0,3.7,1.08,6.12,3.25,7.27Z"/><path class="cls-2" d="m99.34,0C44.48,0,0,44.48,0,99.34c0,43.07,27.41,79.72,65.74,93.5v-21.59c-27.04-12.65-45.77-40.09-45.77-71.91,0-43.84,35.54-79.37,79.37-79.37s79.37,35.54,79.37,79.37c0,39.5-28.86,72.25-66.65,78.35v-94.72c0-3.7-1.09-6.12-3.26-7.27-2.17-1.15-5.36-1.72-9.57-1.72s-7.21.57-9.37,1.72c-2.17,1.15-3.25,3.57-3.25,7.27v106.64h0v8.23c4.17.53,8.41.84,12.72.84,54.86,0,99.34-44.48,99.34-99.34S154.2,0,99.34,0Z"/><path class="cls-2" d="m89.87,57.21c2.17,1.15,5.29,1.72,9.37,1.72s7.4-.57,9.57-1.72c2.17-1.15,3.26-3.57,3.26-7.27v-6.87c0-3.7-1.09-6.12-3.26-7.27-2.17-1.15-5.36-1.72-9.57-1.72s-7.21.57-9.37,1.72c-2.17,1.15-3.25,3.57-3.25,7.27v6.87c0,3.7,1.08,6.12,3.25,7.27Z"/><path class="cls-2" d="m99.34,0C44.48,0,0,44.48,0,99.34c0,43.07,27.41,79.72,65.74,93.5v-21.59c-27.04-12.65-45.77-40.09-45.77-71.91,0-43.84,35.54-79.37,79.37-79.37s79.37,35.54,79.37,79.37c0,39.5-28.86,72.25-66.65,78.35v-94.72c0-3.7-1.09-6.12-3.26-7.27-2.17-1.15-5.36-1.72-9.57-1.72s-7.21.57-9.37,1.72c-2.17,1.15-3.25,3.57-3.25,7.27v106.64h0v8.23c4.17.53,8.41.84,12.72.84,54.86,0,99.34-44.48,99.34-99.34S154.2,0,99.34,0Z"/></g></svg>