<svg width="796" height="107" viewBox="0 0 796 107" fill="none" xmlns="http://www.w3.org/2000/svg">
<path d="M576.416 18.9C570.45 7.49 563.731 1.78 552.105 1.78C539.115 1.78 533.608 7.79 526.267 21.75C526.267 21.75 504.329 64.92 492.092 89.29C492.856 89.11 493.65 89.01 494.464 89.01C498.73 89.01 502.364 91.63 503.799 95.32L540.327 21.44C543.228 16.18 546.903 14.08 551.942 14.08C556.982 14.08 560.657 16.63 563.253 21.59C563.253 21.59 596.644 85.8 604.758 101.91C605.878 104.13 608.179 105.53 610.693 105.53H610.846C615.783 105.53 618.99 100.41 616.761 96.08C605.186 73.61 576.396 18.88 576.396 18.88L576.416 18.9Z" fill="#8B8A8A"/>
<path d="M486.065 93.53H442.636C426.734 93.53 421.848 87.82 421.848 72.66V8.56C421.848 5.08 418.977 2.25 415.424 2.25C411.871 2.25 409 5.07 409 8.56V72.66C409 94.13 417.562 105.55 442.636 105.55H487.185C485.505 103.79 484.477 101.43 484.477 98.84C484.477 96.89 485.057 95.07 486.065 93.54V93.53Z" fill="#8B8A8A"/>
<path d="M789.287 2.25C786.009 2.25 783.21 4.57 782.67 7.75C779.494 26.28 768.886 85.14 768.886 85.14C767.817 90.55 764.294 93.85 758.95 93.85C754.827 93.85 750.999 91 749.319 85.74L726.698 16.22C723.339 6.01 717.831 0 704.841 0C691.851 0 686.343 6.01 682.984 16.22L660.363 85.74C658.683 91 654.856 93.85 650.733 93.85C645.378 93.85 641.865 90.55 640.797 85.14C640.797 85.14 630.178 26.28 627.002 7.75C626.463 4.58 623.663 2.25 620.385 2.25C616.231 2.25 613.075 5.92 613.768 9.94C617.402 30.96 627.644 87.69 627.644 87.69C629.323 96.7 634.678 105.86 650.417 105.86C662.644 105.86 669.067 99.7 673.19 87.69L695.811 18.92C697.491 14.26 699.476 11.86 704.831 11.86C710.186 11.86 712.171 14.26 713.851 18.92L736.482 87.69C740.605 99.7 747.029 105.86 759.255 105.86C775.004 105.86 780.349 96.7 782.029 87.69C782.029 87.69 792.27 30.96 795.904 9.94C796.597 5.92 793.441 2.25 789.287 2.25Z" fill="#8B8A8A"/>
<path d="M498.535 102.829C500.781 100.622 500.781 97.0448 498.535 94.8383C496.288 92.6318 492.646 92.6318 490.4 94.8383C488.154 97.0448 488.154 100.622 490.4 102.829C492.646 105.035 496.288 105.035 498.535 102.829Z" fill="#8B8A8A"/>
<path d="M347.955 20.14C344.848 13.71 340.743 8.91 335.663 5.75C330.571 2.59 324.22 1 316.62 1C309.019 1 302.364 2.58 297.336 5.75C292.297 8.92 288.224 13.71 285.116 20.14C285.116 20.14 259.597 74.31 248.983 96.99C246.831 101.6 250.369 106.79 255.67 106.79H273.149C276.088 106.79 278.744 105.11 279.889 102.53C286.974 86.51 311.948 30.85 311.948 30.85C312.484 29.63 313.177 28.78 314.037 28.32C314.898 27.86 315.801 27.63 316.767 27.63C317.838 27.63 318.803 27.89 319.664 28.4C320.525 28.91 321.218 29.73 321.753 30.85C347.189 86.84 346.738 85.83 354.264 102.57C355.419 105.13 358.065 106.79 360.983 106.79H377.674C382.975 106.79 386.524 101.58 384.351 96.97C373.654 74.27 347.945 20.14 347.945 20.14H347.955Z" fill="#7635DC"/>
<path d="M256.741 42.03C256.741 36.82 255.67 31.82 253.529 27.03C251.387 22.23 248.437 18.05 244.69 14.48C241.047 11.01 236.628 8.27999 231.431 6.28999C226.235 4.29999 219.779 3.29999 212.063 3.29999H140.06C135.346 3.29999 132.984 5.43999 132.984 9.72999V99.76C132.984 103.65 136.291 106.8 140.375 106.8H154.683C158.767 106.8 162.073 103.65 162.073 99.76V80.77H212.053C220.409 80.77 227.421 79.52 233.111 77.02C238.79 74.52 243.504 71.13 247.251 66.84C250.254 63.37 252.584 59.52 254.243 55.28C255.901 51.05 256.731 46.63 256.731 42.04L256.741 42.03ZM225.238 50.45C224.062 51.98 222.477 53.18 220.493 54.05C218.509 54.92 215.916 55.35 212.693 55.35H162.063V32.84C162.063 31.41 162.756 30.7 164.152 30.7H212.693C215.8 30.7 218.341 31.11 220.325 31.93C222.309 32.75 223.883 33.87 225.07 35.3C226.886 37.55 227.799 40.15 227.799 43.11C227.799 45.87 226.938 48.32 225.227 50.46L225.238 50.45Z" fill="#7635DC"/>
<path d="M116.524 36.67C116.524 32.18 115.6 27.88 113.753 23.74C111.905 19.61 109.365 16 106.131 12.92C102.993 9.92998 99.1819 7.57998 94.7099 5.85998C91.4136 4.59998 87.54 3.80998 83.0784 3.46998C83.005 3.46998 82.942 3.45998 82.8685 3.44998C82.3541 3.40998 81.8292 3.38998 81.3043 3.36998C81.0314 3.35998 80.769 3.33998 80.4855 3.32998C79.9711 3.30998 79.4358 3.30998 78.9004 3.29998C78.6169 3.29998 78.3335 3.28998 78.0501 3.28998H26.0867C29.3409 6.69998 31.325 11.22 31.325 16.19C31.325 21.16 29.3095 25.75 26.0132 29.17H74.1974C77.7351 29.17 80.3596 30.09 82.0707 31.93C83.6768 33.46 84.4851 35.4 84.4851 37.75C84.4851 39.69 83.7818 41.48 82.3961 43.11C81.5353 44.13 80.4645 44.95 79.1838 45.56C77.9031 46.17 76.234 46.48 74.1974 46.48H6.22511C2.82387 46.47 0.0629859 49.1 0.0524883 52.34L0 100.39C0 103.92 3.00233 106.79 6.7185 106.79H20.5754C24.2811 106.79 27.2939 103.93 27.2939 100.39V75.92C27.2939 72.67 30.0548 70.04 33.4665 70.04H75.6671C79.9501 70.04 83.005 70.76 84.8316 72.18C86.6476 73.61 87.561 75.96 87.561 79.22C87.561 79.22 87.6449 92.36 87.8129 100.54C87.8864 104 90.8467 106.77 94.4894 106.77H108.336C112.062 106.77 115.075 103.86 115.012 100.3C114.855 91.33 114.718 76.3 114.718 76.3C114.718 70.38 113.889 65.84 112.23 62.67C111.296 60.9 110.047 59.3 108.483 57.88C111.013 54.92 112.986 51.65 114.403 48.05C115.831 44.4 116.545 40.6 116.545 36.64L116.524 36.67Z" fill="#7635DC"/>
<path d="M12.1563 27.94H12.4922C14.8227 27.94 17.0167 27.3 19.0742 26.04C22.7904 23.45 24.659 20.3 24.659 16.6V15.73C24.659 12.87 23.4098 10.2 20.9113 7.72C18.4654 5.55 15.6625 4.47 12.5027 4.47H12.0093C10.5082 4.47 8.87052 4.82 7.09642 5.5C2.36197 8.02 0 11.57 0 16.12V16.28C0 18.66 0.745334 20.88 2.2465 22.95C4.9129 26.28 8.20917 27.95 12.1563 27.95V27.94Z" fill="#7635DC"/>
</svg>
